<svg width="113" height="38" viewBox="0 0 113 38" fill="none" xmlns="http://www.w3.org/2000/svg">
<path d="M16.4501 5.12256C15.78 4.35264 14.9098 3.77752 13.9332 3.45903C12.7853 3.07583 11.58 2.88676 10.3682 2.89982C8.8181 2.86575 7.27694 3.14089 5.8372 3.70874C4.67807 4.16383 3.6758 4.93776 2.94959 5.93851C2.28602 6.89827 1.93983 8.03713 1.95853 9.19875C1.91998 10.2374 2.22671 11.2601 2.83195 12.1108C3.40706 12.8854 4.14372 13.5294 4.99231 13.9994C6.09066 14.5805 7.22679 15.0893 8.39326 15.5223C9.49483 15.9549 10.3611 16.3277 10.9672 16.6302C11.5767 16.9208 12.1247 17.323 12.5821 17.8154C13.0377 18.3132 13.2849 18.963 13.2737 19.6337C13.2865 20.1591 13.1564 20.6783 12.8968 21.1372C12.6373 21.5962 12.2578 21.9781 11.7978 22.2433C10.8673 22.8271 9.57683 23.1225 7.96191 23.1225C6.41472 23.1225 5.18838 22.908 4.3114 22.493C3.88258 22.3211 3.51564 22.0267 3.25772 21.6476C2.99981 21.2684 2.86271 20.8218 2.86403 20.3652C2.86284 20.1568 2.87834 19.9487 2.91038 19.7427C2.92921 19.6345 2.94112 19.5253 2.94603 19.4156V19.384V19.3488C2.99965 19.0588 3.02473 18.7643 3.02089 18.4695C3.02566 18.3345 2.99775 18.2002 2.93948 18.0779C2.8812 17.9556 2.79424 17.8487 2.68579 17.7662C2.40561 17.5543 2.0579 17.4483 1.70543 17.4672C1.46183 17.453 1.21883 17.5035 1.00184 17.6137C0.78485 17.7238 0.601838 17.8894 0.471951 18.0932C0.120604 18.7286 -0.0401421 19.4496 0.00850661 20.1718C0.00850661 21.9303 0.67159 23.1999 2.0334 24.0405C3.39521 24.881 5.33098 25.3488 7.68028 25.3488C10.3326 25.3488 12.4716 24.7931 14.0366 23.6993C15.6016 22.6055 16.3395 21.1038 16.3395 19.078C16.3722 18.1293 16.0851 17.1967 15.5232 16.4262C14.9778 15.7084 14.2824 15.1146 13.484 14.6853C12.4102 14.1283 11.3071 13.6282 10.1793 13.187C9.02426 12.7368 8.11163 12.3394 7.46281 12.0123C6.8144 11.6905 6.2347 11.2487 5.75521 10.7111C5.27187 10.1656 5.01138 9.46239 5.02439 8.73803C5.00659 8.21049 5.12599 7.68723 5.37124 7.21811C5.61649 6.74899 5.9794 6.34963 6.42541 6.05808C7.31308 5.44965 8.59647 5.14366 10.2328 5.14366C11.2682 5.10842 12.2962 5.32842 13.2238 5.78376C13.6193 5.9617 13.954 6.24925 14.1869 6.61141C14.4198 6.97358 14.541 7.39473 14.5357 7.82361C14.5357 7.98187 14.5071 8.32654 14.4465 8.91388C14.3946 9.2053 14.3695 9.50077 14.3717 9.79665C14.3703 9.94244 14.4016 10.0867 14.4632 10.2192C14.5248 10.3518 14.6153 10.4693 14.7282 10.5633C14.9868 10.7987 15.3284 10.9249 15.68 10.915C15.9312 10.9257 16.1802 10.8651 16.3975 10.7404C16.6149 10.6157 16.7915 10.4322 16.9064 10.2117C17.2201 9.69114 17.3805 8.88926 17.3805 7.82361C17.4074 6.84251 17.0773 5.88435 16.4501 5.12256Z" fill="url(#paint0_linear_1524_12204)"/>
<path d="M112.721 14.5344C112.5 14.3583 112.222 14.2732 111.943 14.296C111.58 14.2927 111.217 14.3271 110.861 14.3987L110.501 14.472L110.421 14.1236C110.385 13.8711 110.292 13.6303 110.151 13.4195C110.151 13.4195 110.046 13.3094 109.606 13.3094C108.379 13.3203 107.186 13.726 106.199 14.4684C105.093 15.2748 104.195 16.3419 103.582 17.5784C102.965 18.7787 102.628 20.1078 102.598 21.4623V21.6016L102.508 21.7006C102.122 22.1334 101.787 22.4891 101.48 22.7605C100.9 23.285 100.399 23.5417 99.9228 23.5417C99.5623 23.5417 98.7583 23.395 98.7583 22.0454C98.8434 20.9254 99.0231 19.8149 99.2955 18.7263C99.6105 17.4486 99.8156 16.1454 99.9084 14.8314C99.9084 13.8156 99.465 13.3645 98.4663 13.3645C97.8163 13.3986 97.1863 13.6047 96.6385 13.9623C95.8116 14.5048 95.0954 15.2046 94.5294 16.0234C93.6979 17.1963 93.0283 18.4797 92.5393 19.8376L91.8435 19.7055C91.8435 18.631 91.8724 17.6077 91.9264 16.6689V16.5405L92.013 16.4415C94.4357 13.7532 96.2094 11.373 97.2838 9.36691C98.2772 7.62302 98.8239 5.65319 98.8737 3.63831C98.9179 2.69191 98.6654 1.75567 98.1526 0.964719C97.9618 0.664794 97.6994 0.418997 97.3898 0.250312C97.0802 0.0816259 96.7337 -0.00443428 96.3825 0.00017594C94.9404 0.00017594 93.675 1.0124 92.6114 3.01118C91.3746 5.46286 90.5173 8.09409 90.0698 10.8119C89.5082 13.772 89.2186 16.7788 89.2045 19.7935L89.1829 21.2312L89.0927 21.3449C88.6142 21.8783 88.0985 22.3759 87.5497 22.8339C86.875 23.3769 86.0377 23.6682 85.1775 23.6591C84.6744 23.6887 84.1731 23.5742 83.7308 23.3285C83.2885 23.0828 82.9229 22.7157 82.6755 22.2691C82.1743 21.3999 81.9328 19.9659 81.9328 17.8865C81.9328 17.34 81.9508 16.6028 81.9869 15.6273V15.2605H85.7832C88.6205 15.2605 88.6205 14.0429 88.6205 13.6432C88.6205 13.2434 88.5339 13.1591 88.5267 13.1554C88.4096 13.0774 88.2692 13.0437 88.1301 13.0601H84.0238L84.7449 12.4183C87.1027 10.2985 88.296 7.7789 88.296 4.9256C88.3291 4.05676 88.1137 3.19681 87.6759 2.45005C87.5181 2.17176 87.2895 1.94182 87.0142 1.78436C86.7389 1.62691 86.427 1.54775 86.1112 1.55519C85.1486 1.55519 84.2257 2.03563 83.3677 2.98917C82.351 4.18143 81.5613 5.55565 81.0387 7.04173C80.3576 8.88436 79.8741 10.7964 79.5966 12.7447L79.5497 13.0564H77.6282C77.1775 13.0564 76.716 13.2031 76.716 14.2997C76.6879 14.5673 76.7572 14.836 76.9107 15.0552C76.9684 15.1139 77.1703 15.2569 77.7976 15.2569H79.283L79.2577 15.6456C79.2036 16.5148 79.1748 17.3693 79.1748 18.1835C79.1748 18.785 79.2 19.3608 79.2505 19.8999L79.2721 20.1493L79.0522 20.2593C78.9563 20.3112 78.8716 20.3823 78.8035 20.4684C78.1622 21.2774 77.4672 22.0408 76.7233 22.7532C76.1392 23.2777 75.6417 23.5344 75.1694 23.5344C74.8089 23.5344 74.0085 23.3877 74.0085 22.038C74.0928 20.9182 74.2713 19.8078 74.5421 18.719C74.8535 17.4409 75.0549 16.1377 75.1442 14.8241C75.1442 13.8082 74.7007 13.3571 73.7021 13.3571C73.052 13.3908 72.4218 13.5969 71.8742 13.9549C71.0415 14.5026 70.3204 15.2087 69.7508 16.0344C68.9084 17.2174 68.2336 18.5149 67.7463 19.8889L67.0505 19.7239C67.109 19.0103 67.2041 18.3003 67.3353 17.5967C67.447 17.0283 67.5949 16.3791 67.7823 15.6016C67.9805 14.9716 68.1157 14.3228 68.1861 13.6652C68.1861 13.5332 68.1609 13.4562 68.1392 13.4415C67.9513 13.3667 67.7488 13.3378 67.548 13.3571C67.062 13.3255 66.5775 13.4376 66.1528 13.6799C65.8208 13.9217 65.5833 14.275 65.4822 14.6774C64.8519 16.7354 64.5132 18.8743 64.4763 21.0295V21.1615L64.3898 21.2642C63.9552 21.7857 63.4918 22.2816 63.0018 22.7495C62.425 23.2776 61.9202 23.5344 61.484 23.5344C61.328 23.5364 61.1735 23.5028 61.0319 23.4362C60.8903 23.3696 60.7651 23.2715 60.6656 23.1493C60.4663 22.8892 60.3641 22.5656 60.3772 22.2361C60.4636 20.7012 60.6758 19.1764 61.0117 17.6774C61.2114 16.7726 61.3487 15.8547 61.4227 14.9305C61.4227 14.7288 61.4227 14.3107 60.4241 14.3107C60.0373 14.3103 59.6512 14.3447 59.2704 14.4134L58.9315 14.4794L58.8558 14.1383C58.8192 13.8875 58.728 13.6482 58.589 13.4378C58.589 13.4378 58.4664 13.3241 58.041 13.3241C56.8136 13.335 55.621 13.7406 54.6341 14.483C53.5266 15.2884 52.6283 16.3558 52.0167 17.5931C51.391 18.8073 51.0539 20.1538 51.0325 21.5246V21.664L50.9424 21.7666C50.553 22.1957 50.2213 22.5258 49.9545 22.7752C49.3741 23.2997 48.873 23.5564 48.4007 23.5564C48.0402 23.5564 47.2362 23.4097 47.2362 22.0601C47.3221 20.9404 47.5006 19.8301 47.7698 18.741C48.0782 17.458 48.2736 16.1497 48.3538 14.8314C48.3538 13.8046 47.9248 13.3645 46.9117 13.3645C46.0284 13.3645 45.0478 13.8632 43.9951 14.8314C42.9424 15.7997 41.9077 17.4977 41.01 19.7459L40.3178 19.5478C40.3683 19.2361 40.462 18.774 40.6278 18.0038C40.8965 16.9599 41.0703 15.8931 41.147 14.8168C41.1819 14.4122 41.0717 14.0084 40.8369 13.6799C40.6845 13.5519 40.5081 13.4567 40.3185 13.4C40.1289 13.3433 39.93 13.3262 39.7337 13.3498C39.0584 13.386 38.4086 13.6246 37.8662 14.0356C37.0621 14.6261 36.3717 15.3621 35.8293 16.2068C35.0916 17.3341 34.5048 18.5563 34.0844 19.8412L33.385 19.6872C33.4436 18.9785 33.5387 18.2733 33.6698 17.5747C33.7815 17.0209 33.933 16.3571 34.1168 15.5943C34.3171 14.9648 34.4524 14.3158 34.5206 13.6579C34.5206 13.5258 34.4954 13.4488 34.4737 13.4341C34.2872 13.3589 34.0858 13.33 33.8861 13.3498C33.4001 13.3182 32.9156 13.4303 32.4909 13.6725C32.1575 13.9137 31.9187 14.2671 31.8167 14.6701C31.1868 16.7255 30.8493 18.8621 30.8144 21.0148V21.1468L30.7315 21.2495C30.2931 21.7722 29.8273 22.2704 29.3363 22.7422C28.7631 23.2703 28.2547 23.527 27.8185 23.527C27.6625 23.529 27.508 23.4955 27.3664 23.4289C27.2248 23.3622 27.0996 23.2642 27.0001 23.142C26.8008 22.8819 26.6986 22.5583 26.7117 22.2288C26.8062 20.6955 27.0269 19.1731 27.3715 17.6774C27.5708 16.7727 27.707 15.8548 27.7788 14.9305C27.7788 14.7288 27.7789 14.3107 26.7802 14.3107C26.3934 14.3088 26.0072 14.3432 25.6265 14.4134L25.2876 14.4794L25.2119 14.1383C25.1755 13.8858 25.083 13.645 24.9415 13.4341C24.9415 13.4341 24.837 13.3241 24.3972 13.3241C23.1697 13.335 21.9772 13.7406 20.9902 14.483C19.8827 15.2884 18.9844 16.3558 18.3728 17.5931C17.7234 18.8586 17.3857 20.2657 17.3886 21.6933C17.3291 22.8074 17.6628 23.9065 18.3296 24.7923C18.6253 25.1634 19.0024 25.4589 19.4307 25.6551C19.8589 25.8512 20.3263 25.9426 20.7955 25.9219C22.1331 25.9219 23.2183 25.1884 24.1196 23.7214L24.5125 23.0796L24.7649 23.7911C24.9614 24.404 25.3223 24.9489 25.8068 25.3644C26.2066 25.7186 26.7187 25.914 27.2489 25.9146C28.0768 25.8687 28.8671 25.548 29.4985 25.0014C29.8086 24.763 30.1186 24.4953 30.4503 24.1835L30.919 23.7361L31.0488 24.3779C31.0923 24.5975 31.1526 24.8133 31.229 25.0234C31.2927 25.282 31.4408 25.5111 31.649 25.673C31.8573 25.8349 32.1134 25.9201 32.3755 25.9146C32.5549 25.9339 32.7362 25.9138 32.9073 25.8556C33.0784 25.7974 33.2351 25.7024 33.3669 25.5772C33.5184 25.3975 33.7527 24.9684 33.9942 23.9451C34.2476 22.874 34.5716 21.8215 34.964 20.7948C35.2968 19.8674 35.7208 18.9766 36.2295 18.1358C36.745 17.3107 37.1776 16.9439 37.5886 16.9439C37.9095 16.9439 38.2556 17.1603 38.2556 17.7618C38.2556 18.1542 38.1835 18.9207 38.0285 20.1823C37.8753 21.1914 37.7838 22.2093 37.7545 23.23C37.7345 23.9172 37.878 24.5991 38.1727 25.2177C38.2596 25.427 38.4066 25.6048 38.5944 25.7278C38.7822 25.8508 39.0021 25.9134 39.2254 25.9072C39.4087 25.9271 39.594 25.908 39.7696 25.8512C39.9453 25.7944 40.1074 25.7011 40.2457 25.5772C40.3719 25.4341 40.6062 25.0344 40.8694 23.9341C41.137 22.7951 41.4988 21.6811 41.951 20.6041C42.3197 19.7027 42.7788 18.8424 43.3209 18.0368C43.8545 17.274 44.2619 16.9366 44.6368 16.9366C44.9577 16.9366 45.3038 17.153 45.3038 17.7544C45.2552 18.6045 45.1346 19.4487 44.9433 20.2777C44.7449 21.1816 44.6171 22.1001 44.5611 23.0246C44.5611 23.9818 44.7738 24.7116 45.192 25.1957C45.6102 25.6798 46.2123 25.8999 47.0559 25.8999C48.0939 25.9146 49.1111 25.6034 49.969 25.0087C50.3468 24.7433 50.708 24.4542 51.0505 24.1432L51.3858 23.8351L51.6057 24.2349C51.7105 24.4236 51.8311 24.6027 51.9662 24.7703C52.262 25.1414 52.6391 25.4369 53.0673 25.6331C53.4956 25.8292 53.963 25.9206 54.4322 25.8999C55.7697 25.8999 56.8549 25.1664 57.7562 23.6994L58.1528 23.0539L58.4015 23.7691C58.5982 24.3819 58.9591 24.9268 59.4435 25.3424C59.8433 25.6966 60.3554 25.892 60.8855 25.8926C61.7099 25.8574 62.5002 25.5482 63.1352 25.0124C63.4661 24.758 63.7826 24.485 64.0834 24.1945L64.5484 23.7508L64.6854 24.3852C64.7304 24.6061 64.7919 24.8231 64.8693 25.0344C64.9329 25.293 65.081 25.5221 65.2893 25.684C65.4976 25.8459 65.7537 25.9311 66.0158 25.9256C66.1946 25.9449 66.3754 25.9247 66.5459 25.8665C66.7163 25.8082 66.8725 25.7133 67.0036 25.5882C67.1586 25.4085 67.3966 24.9794 67.6309 23.9525C67.9037 22.8092 68.2778 21.6934 68.7485 20.6187C69.1232 19.7217 69.5794 18.8622 70.1113 18.0515C70.634 17.2887 71.0378 16.9513 71.42 16.9513C71.7408 16.9513 72.0833 17.1676 72.0833 17.7691C72.0373 18.6194 71.9166 19.4638 71.7228 20.2923C71.5199 21.1953 71.3932 22.1143 71.3443 23.0393C71.3443 24.0001 71.557 24.73 71.9752 25.2104C72.2154 25.4595 72.5066 25.6518 72.8282 25.7735C73.1497 25.8952 73.4936 25.9433 73.8355 25.9146C74.8735 25.9293 75.8907 25.6181 76.7485 25.0234C77.676 24.3626 78.5052 23.5697 79.2108 22.6688L79.611 22.1701L79.8309 22.7715C80.6493 25.0014 82.2032 26.0723 84.579 26.0723C85.6835 26.0908 86.7679 25.77 87.6903 25.1517C88.012 24.9366 88.3202 24.7015 88.6133 24.4476L89.1288 24.0075L89.2009 24.6896C89.2218 24.9705 89.2812 25.247 89.3776 25.5111C89.4533 25.6798 89.6119 25.8999 90.1455 25.8999C91.3676 25.8999 92.0851 25.2728 92.4023 23.9268C92.6689 22.7874 93.0307 21.6733 93.4839 20.5967C93.8512 19.6946 94.3103 18.8342 94.8539 18.0295C95.3947 17.2593 95.7912 16.9292 96.1734 16.9292C96.4943 16.9292 96.8367 17.1456 96.8367 17.7471C96.7907 18.5974 96.67 19.4418 96.4762 20.2703C96.2794 21.1744 96.1528 22.0929 96.0977 23.0173C96.0977 23.9781 96.3104 24.708 96.7286 25.1884C96.9688 25.4375 97.2601 25.6298 97.5816 25.7515C97.9031 25.8732 98.247 25.9213 98.5889 25.8926C99.6088 25.906 100.607 25.5944 101.444 25.0014C101.839 24.721 102.215 24.416 102.573 24.0882L102.933 23.7691L103.149 24.1909C103.251 24.3941 103.372 24.5869 103.51 24.7666C103.774 25.1268 104.119 25.4172 104.516 25.6131C104.913 25.8091 105.351 25.9049 105.792 25.8926C107.04 25.8926 107.901 25.1774 108.42 23.7104L109.12 23.8571L109.091 24.2862C109.05 24.7346 109.179 25.182 109.451 25.5368C109.772 25.8062 110.183 25.9378 110.598 25.9036C110.8 25.9256 111.005 25.9061 111.2 25.8463C111.395 25.7864 111.577 25.6875 111.733 25.5552C111.996 25.1834 112.115 24.7267 112.069 24.2715C112.063 23.0872 112.119 21.9033 112.238 20.7251C112.343 19.7019 112.498 18.6163 112.711 17.4244C112.857 16.6992 112.948 15.9635 112.981 15.2239C112.99 15.0967 112.971 14.9691 112.926 14.85C112.881 14.7309 112.811 14.6232 112.721 14.5344ZM92.2689 13.1187C92.4878 11.3013 92.8007 9.49683 93.2063 7.71287C93.494 6.35726 93.8932 5.02863 94.3996 3.741C94.8863 2.58208 95.3334 2.06496 95.8417 2.06496C96.0442 2.0705 96.2396 2.14238 96.3987 2.2699C96.5578 2.39743 96.6723 2.5738 96.725 2.77278C96.8948 3.26083 96.9707 3.77757 96.9485 4.29479C96.893 5.88067 96.498 7.43514 95.7912 8.84979C95.0314 10.4931 94.0617 12.0271 92.9071 13.4121L92.1247 14.351L92.2689 13.1187ZM82.2933 12.3302C82.4753 10.9212 82.7316 9.52304 83.0612 8.14197C83.2902 7.10852 83.6236 6.10193 84.0563 5.13831C84.4817 4.26178 84.8674 3.87303 85.3109 3.87303C86.2807 3.87303 86.2807 5.40237 86.2807 5.90481C86.2405 7.09061 85.9504 8.25379 85.4298 9.31557C84.8296 10.601 83.9697 11.7432 82.9062 12.6676L82.1852 13.3021L82.2933 12.3302ZM24.1123 20.8241C23.9809 21.5796 23.6839 22.2954 23.2435 22.9182C23.0878 23.1694 22.876 23.3796 22.6255 23.5319C22.3749 23.6842 22.0926 23.7743 21.8014 23.7948C21.5674 23.8047 21.3342 23.76 21.1199 23.664C20.9055 23.568 20.7156 23.4233 20.5648 23.241C20.2484 22.7975 20.0965 22.2545 20.1358 21.708C20.1317 20.6327 20.3402 19.5676 20.7487 18.576C21.1052 17.6549 21.6696 16.8321 22.3963 16.1737C23.0493 15.5738 23.8892 15.2271 24.7685 15.1945H25.2228L24.1123 20.8241ZM57.7562 20.8241C57.6231 21.5791 57.3263 22.2945 56.8874 22.9182C56.7314 23.1692 56.5196 23.3793 56.2691 23.5315C56.0186 23.6838 55.7364 23.774 55.4453 23.7948C55.2119 23.8036 54.9796 23.7584 54.766 23.6624C54.5524 23.5665 54.3631 23.4224 54.2123 23.241C53.8896 22.8011 53.73 22.2595 53.7616 21.7116C53.7576 20.6364 53.966 19.5713 54.3745 18.5796C54.7343 17.6566 55.3038 16.8334 56.0365 16.1774C56.6898 15.578 57.5296 15.2314 58.4088 15.1982H58.863L57.7562 20.8241ZM109.772 18.4769C109.433 20.4133 109.051 21.7336 108.593 22.5111C108.099 23.3583 107.512 23.7911 106.87 23.7911C106.649 23.794 106.431 23.7424 106.234 23.6409C106.037 23.5394 105.867 23.3908 105.738 23.208C105.453 22.7622 105.315 22.2353 105.345 21.7043C105.341 20.6291 105.549 19.564 105.958 18.5723C106.316 17.6542 106.879 16.8332 107.602 16.1737C108.241 15.5755 109.067 15.2272 109.934 15.1909H110.382L109.772 18.4769Z" fill="url(#paint1_linear_1524_12204)"/>
<path d="M112.721 14.5344C112.5 14.3583 112.222 14.2732 111.943 14.296C111.58 14.2927 111.217 14.3271 110.861 14.3987L110.501 14.472L110.421 14.1236C110.385 13.8711 110.292 13.6303 110.151 13.4195C110.151 13.4195 110.046 13.3094 109.606 13.3094C108.379 13.3203 107.186 13.726 106.199 14.4684C105.093 15.2748 104.195 16.3419 103.582 17.5784C102.965 18.7787 102.628 20.1078 102.598 21.4623V21.6016L102.508 21.7006C102.122 22.1334 101.787 22.4891 101.48 22.7605C100.9 23.285 100.399 23.5417 99.9228 23.5417C99.5623 23.5417 98.7583 23.395 98.7583 22.0454C98.8434 20.9254 99.0231 19.8149 99.2955 18.7263C99.6105 17.4486 99.8156 16.1454 99.9084 14.8314C99.9084 13.8156 99.465 13.3645 98.4663 13.3645C97.8163 13.3986 97.1863 13.6047 96.6385 13.9623C95.8116 14.5048 95.0954 15.2046 94.5294 16.0234C93.6979 17.1963 93.0283 18.4797 92.5393 19.8376L91.8435 19.7055C91.8435 18.631 91.8724 17.6077 91.9264 16.6689V16.5405L92.013 16.4415C94.4357 13.7532 96.2094 11.373 97.2838 9.36691C98.2772 7.62302 98.8239 5.65319 98.8737 3.63831C98.9179 2.69191 98.6654 1.75567 98.1526 0.964719C97.9618 0.664794 97.6994 0.418997 97.3898 0.250312C97.0802 0.0816259 96.7337 -0.00443428 96.3825 0.00017594C94.9404 0.00017594 93.675 1.0124 92.6114 3.01118C91.3746 5.46286 90.5173 8.09409 90.0698 10.8119C89.5082 13.772 89.2186 16.7788 89.2045 19.7935L89.1829 21.2312L89.0927 21.3449C88.6142 21.8783 88.0985 22.3759 87.5497 22.8339C86.875 23.3769 86.0377 23.6682 85.1775 23.6591C84.6744 23.6887 84.1731 23.5742 83.7308 23.3285C83.2885 23.0828 82.9229 22.7157 82.6755 22.2691C82.1743 21.3999 81.9328 19.9659 81.9328 17.8865C81.9328 17.34 81.9508 16.6028 81.9869 15.6273V15.2605H85.7832C88.6205 15.2605 88.6205 14.0429 88.6205 13.6432C88.6205 13.2434 88.5339 13.1591 88.5267 13.1554C88.4096 13.0774 88.2692 13.0437 88.1301 13.0601H84.0238L84.7449 12.4183C87.1027 10.2985 88.296 7.7789 88.296 4.9256C88.3291 4.05676 88.1137 3.19681 87.6759 2.45005C87.5181 2.17176 87.2895 1.94182 87.0142 1.78436C86.7389 1.62691 86.427 1.54775 86.1112 1.55519C85.1486 1.55519 84.2257 2.03563 83.3677 2.98917C82.351 4.18143 81.5613 5.55565 81.0387 7.04173C80.3576 8.88436 79.8741 10.7964 79.5966 12.7447L79.5497 13.0564H77.6282C77.1775 13.0564 76.716 13.2031 76.716 14.2997C76.6879 14.5673 76.7572 14.836 76.9107 15.0552C76.9684 15.1139 77.1703 15.2569 77.7976 15.2569H79.283L79.2577 15.6456C79.2036 16.5148 79.1748 17.3693 79.1748 18.1835C79.1748 18.785 79.2 19.3608 79.2505 19.8999L79.2721 20.1493L79.0522 20.2593C78.9563 20.3112 78.8716 20.3823 78.8035 20.4684C78.1622 21.2774 77.4672 22.0408 76.7233 22.7532C76.1392 23.2777 75.6417 23.5344 75.1694 23.5344C74.8089 23.5344 74.0085 23.3877 74.0085 22.038C74.0928 20.9182 74.2713 19.8078 74.5421 18.719C74.8535 17.4409 75.0549 16.1377 75.1442 14.8241C75.1442 13.8082 74.7007 13.3571 73.7021 13.3571C73.052 13.3908 72.4218 13.5969 71.8742 13.9549C71.0415 14.5026 70.3204 15.2087 69.7508 16.0344C68.9084 17.2174 68.2336 18.5149 67.7463 19.8889L67.0505 19.7239C67.109 19.0103 67.2041 18.3003 67.3353 17.5967C67.447 17.0283 67.5949 16.3791 67.7823 15.6016C67.9805 14.9716 68.1157 14.3228 68.1861 13.6652C68.1861 13.5332 68.1609 13.4562 68.1392 13.4415C67.9513 13.3667 67.7488 13.3378 67.548 13.3571C67.062 13.3255 66.5775 13.4376 66.1528 13.6799C65.8208 13.9217 65.5833 14.275 65.4822 14.6774C64.8519 16.7354 64.5132 18.8743 64.4763 21.0295V21.1615L64.3898 21.2642C63.9552 21.7857 63.4918 22.2816 63.0018 22.7495C62.425 23.2776 61.9202 23.5344 61.484 23.5344C61.328 23.5364 61.1735 23.5028 61.0319 23.4362C60.8903 23.3696 60.7651 23.2715 60.6656 23.1493C60.4663 22.8892 60.3641 22.5656 60.3772 22.2361C60.4636 20.7012 60.6758 19.1764 61.0117 17.6774C61.2114 16.7726 61.3487 15.8547 61.4227 14.9305C61.4227 14.7288 61.4227 14.3107 60.4241 14.3107C60.0373 14.3103 59.6512 14.3447 59.2704 14.4134L58.9315 14.4794L58.8558 14.1383C58.8192 13.8875 58.728 13.6482 58.589 13.4378C58.589 13.4378 58.4664 13.3241 58.041 13.3241C56.8136 13.335 55.621 13.7406 54.6341 14.483C53.5266 15.2884 52.6283 16.3558 52.0167 17.5931C51.391 18.8073 51.0539 20.1538 51.0325 21.5246V21.664L50.9424 21.7666C50.553 22.1957 50.2213 22.5258 49.9545 22.7752C49.3741 23.2997 48.873 23.5564 48.4007 23.5564C48.0402 23.5564 47.2362 23.4097 47.2362 22.0601C47.3221 20.9404 47.5006 19.8301 47.7698 18.741C48.0782 17.458 48.2736 16.1497 48.3538 14.8314C48.3538 13.8046 47.9248 13.3645 46.9117 13.3645C46.0284 13.3645 45.0478 13.8632 43.9951 14.8314C42.9424 15.7997 41.9077 17.4977 41.01 19.7459L40.3178 19.5478C40.3683 19.2361 40.462 18.774 40.6278 18.0038C40.8965 16.9599 41.0703 15.8931 41.147 14.8168C41.1819 14.4122 41.0717 14.0084 40.8369 13.6799C40.6845 13.5519 40.5081 13.4567 40.3185 13.4C40.1289 13.3433 39.93 13.3262 39.7337 13.3498C39.0584 13.386 38.4086 13.6246 37.8662 14.0356C37.0621 14.6261 36.3717 15.3621 35.8293 16.2068C35.0916 17.3341 34.5048 18.5563 34.0844 19.8412L33.385 19.6872C33.4436 18.9785 33.5387 18.2733 33.6698 17.5747C33.7815 17.0209 33.933 16.3571 34.1168 15.5943C34.3171 14.9648 34.4524 14.3158 34.5206 13.6579C34.5206 13.5258 34.4954 13.4488 34.4737 13.4341C34.2872 13.3589 34.0858 13.33 33.8861 13.3498C33.4001 13.3182 32.9156 13.4303 32.4909 13.6725C32.1575 13.9137 31.9187 14.2671 31.8167 14.6701C31.1868 16.7255 30.8493 18.8621 30.8144 21.0148V21.1468L30.7315 21.2495C30.2931 21.7722 29.8273 22.2704 29.3363 22.7422C28.7631 23.2703 28.2547 23.527 27.8185 23.527C27.6625 23.529 27.508 23.4955 27.3664 23.4289C27.2248 23.3622 27.0996 23.2642 27.0001 23.142C26.8008 22.8819 26.6986 22.5583 26.7117 22.2288C26.8062 20.6955 27.0269 19.1731 27.3715 17.6774C27.5708 16.7727 27.707 15.8548 27.7788 14.9305C27.7788 14.7288 27.7789 14.3107 26.7802 14.3107C26.3934 14.3088 26.0072 14.3432 25.6265 14.4134L25.2876 14.4794L25.2119 14.1383C25.1755 13.8858 25.083 13.645 24.9415 13.4341C24.9415 13.4341 24.837 13.3241 24.3972 13.3241C23.1697 13.335 21.9772 13.7406 20.9902 14.483C19.8827 15.2884 18.9844 16.3558 18.3728 17.5931C17.7234 18.8586 17.3857 20.2657 17.3886 21.6933C17.3291 22.8074 17.6628 23.9065 18.3296 24.7923C18.6253 25.1634 19.0024 25.4589 19.4307 25.6551C19.8589 25.8512 20.3263 25.9426 20.7955 25.9219C22.1331 25.9219 23.2183 25.1884 24.1196 23.7214L24.5125 23.0796L24.7649 23.7911C24.9614 24.404 25.3223 24.9489 25.8068 25.3644C26.2066 25.7186 26.7187 25.914 27.2489 25.9146C28.0768 25.8687 28.8671 25.548 29.4985 25.0014C29.8086 24.763 30.1186 24.4953 30.4503 24.1835L30.919 23.7361L31.0488 24.3779C31.0923 24.5975 31.1526 24.8133 31.229 25.0234C31.2927 25.282 31.4408 25.5111 31.649 25.673C31.8573 25.8349 32.1134 25.9201 32.3755 25.9146C32.5549 25.9339 32.7362 25.9138 32.9073 25.8556C33.0784 25.7974 33.2351 25.7024 33.3669 25.5772C33.5184 25.3975 33.7527 24.9684 33.9942 23.9451C34.2476 22.874 34.5716 21.8215 34.964 20.7948C35.2968 19.8674 35.7208 18.9766 36.2295 18.1358C36.745 17.3107 37.1776 16.9439 37.5886 16.9439C37.9095 16.9439 38.2556 17.1603 38.2556 17.7618C38.2556 18.1542 38.1835 18.9207 38.0285 20.1823C37.8753 21.1914 37.7838 22.2093 37.7545 23.23C37.7345 23.9172 37.878 24.5991 38.1727 25.2177C38.2596 25.427 38.4066 25.6048 38.5944 25.7278C38.7822 25.8508 39.0021 25.9134 39.2254 25.9072C39.4087 25.9271 39.594 25.908 39.7696 25.8512C39.9453 25.7944 40.1074 25.7011 40.2457 25.5772C40.3719 25.4341 40.6062 25.0344 40.8694 23.9341C41.137 22.7951 41.4988 21.6811 41.951 20.6041C42.3197 19.7027 42.7788 18.8424 43.3209 18.0368C43.8545 17.274 44.2619 16.9366 44.6368 16.9366C44.9577 16.9366 45.3038 17.153 45.3038 17.7544C45.2552 18.6045 45.1346 19.4487 44.9433 20.2777C44.7449 21.1816 44.6171 22.1001 44.5611 23.0246C44.5611 23.9818 44.7738 24.7116 45.192 25.1957C45.6102 25.6798 46.2123 25.8999 47.0559 25.8999C48.0939 25.9146 49.1111 25.6034 49.969 25.0087C50.3468 24.7433 50.708 24.4542 51.0505 24.1432L51.3858 23.8351L51.6057 24.2349C51.7105 24.4236 51.8311 24.6027 51.9662 24.7703C52.262 25.1414 52.6391 25.4369 53.0673 25.6331C53.4956 25.8292 53.963 25.9206 54.4322 25.8999C55.7697 25.8999 56.8549 25.1664 57.7562 23.6994L58.1528 23.0539L58.4015 23.7691C58.5982 24.3819 58.9591 24.9268 59.4435 25.3424C59.8433 25.6966 60.3554 25.892 60.8855 25.8926C61.7099 25.8574 62.5002 25.5482 63.1352 25.0124C63.4661 24.758 63.7826 24.485 64.0834 24.1945L64.5484 23.7508L64.6854 24.3852C64.7304 24.6061 64.7919 24.8231 64.8693 25.0344C64.9329 25.293 65.081 25.5221 65.2893 25.684C65.4976 25.8459 65.7537 25.9311 66.0158 25.9256C66.1946 25.9449 66.3754 25.9247 66.5459 25.8665C66.7163 25.8082 66.8725 25.7133 67.0036 25.5882C67.1586 25.4085 67.3966 24.9794 67.6309 23.9525C67.9037 22.8092 68.2778 21.6934 68.7485 20.6187C69.1232 19.7217 69.5794 18.8622 70.1113 18.0515C70.634 17.2887 71.0378 16.9513 71.42 16.9513C71.7408 16.9513 72.0833 17.1676 72.0833 17.7691C72.0373 18.6194 71.9166 19.4638 71.7228 20.2923C71.5199 21.1953 71.3932 22.1143 71.3443 23.0393C71.3443 24.0001 71.557 24.73 71.9752 25.2104C72.2154 25.4595 72.5066 25.6518 72.8282 25.7735C73.1497 25.8952 73.4936 25.9433 73.8355 25.9146C74.8735 25.9293 75.8907 25.6181 76.7485 25.0234C77.676 24.3626 78.5052 23.5697 79.2108 22.6688L79.611 22.1701L79.8309 22.7715C80.6493 25.0014 82.2032 26.0723 84.579 26.0723C85.6835 26.0908 86.7679 25.77 87.6903 25.1517C88.012 24.9366 88.3202 24.7015 88.6133 24.4476L89.1288 24.0075L89.2009 24.6896C89.2218 24.9705 89.2812 25.247 89.3776 25.5111C89.4533 25.6798 89.6119 25.8999 90.1455 25.8999C91.3676 25.8999 92.0851 25.2728 92.4023 23.9268C92.6689 22.7874 93.0307 21.6733 93.4839 20.5967C93.8512 19.6946 94.3103 18.8342 94.8539 18.0295C95.3947 17.2593 95.7912 16.9292 96.1734 16.9292C96.4943 16.9292 96.8367 17.1456 96.8367 17.7471C96.7907 18.5974 96.67 19.4418 96.4762 20.2703C96.2794 21.1744 96.1528 22.0929 96.0977 23.0173C96.0977 23.9781 96.3104 24.708 96.7286 25.1884C96.9688 25.4375 97.2601 25.6298 97.5816 25.7515C97.9031 25.8732 98.247 25.9213 98.5889 25.8926C99.6088 25.906 100.607 25.5944 101.444 25.0014C101.839 24.721 102.215 24.416 102.573 24.0882L102.933 23.7691L103.149 24.1909C103.251 24.3941 103.372 24.5869 103.51 24.7666C103.774 25.1268 104.119 25.4172 104.516 25.6131C104.913 25.8091 105.351 25.9049 105.792 25.8926C107.04 25.8926 107.901 25.1774 108.42 23.7104L109.12 23.8571L109.091 24.2862C109.05 24.7346 109.179 25.182 109.451 25.5368C109.772 25.8062 110.183 25.9378 110.598 25.9036C110.8 25.9256 111.005 25.9061 111.2 25.8463C111.395 25.7864 111.577 25.6875 111.733 25.5552C111.996 25.1834 112.115 24.7267 112.069 24.2715C112.063 23.0872 112.119 21.9033 112.238 20.7251C112.343 19.7019 112.498 18.6163 112.711 17.4244C112.857 16.6992 112.948 15.9635 112.981 15.2239C112.99 15.0967 112.971 14.9691 112.926 14.85C112.881 14.7309 112.811 14.6232 112.721 14.5344ZM92.2689 13.1187C92.4878 11.3013 92.8007 9.49683 93.2063 7.71287C93.494 6.35726 93.8932 5.02863 94.3996 3.741C94.8863 2.58208 95.3334 2.06496 95.8417 2.06496C96.0442 2.0705 96.2396 2.14238 96.3987 2.2699C96.5578 2.39743 96.6723 2.5738 96.725 2.77278C96.8948 3.26083 96.9707 3.77757 96.9485 4.29479C96.893 5.88067 96.498 7.43514 95.7912 8.84979C95.0314 10.4931 94.0617 12.0271 92.9071 13.4121L92.1247 14.351L92.2689 13.1187ZM82.2933 12.3302C82.4753 10.9212 82.7316 9.52304 83.0612 8.14197C83.2902 7.10852 83.6236 6.10193 84.0563 5.13831C84.4817 4.26178 84.8674 3.87303 85.3109 3.87303C86.2807 3.87303 86.2807 5.40237 86.2807 5.90481C86.2405 7.09061 85.9504 8.25379 85.4298 9.31557C84.8296 10.601 83.9697 11.7432 82.9062 12.6676L82.1852 13.3021L82.2933 12.3302ZM24.1123 20.8241C23.9809 21.5796 23.6839 22.2954 23.2435 22.9182C23.0878 23.1694 22.876 23.3796 22.6255 23.5319C22.3749 23.6842 22.0926 23.7743 21.8014 23.7948C21.5674 23.8047 21.3342 23.76 21.1199 23.664C20.9055 23.568 20.7156 23.4233 20.5648 23.241C20.2484 22.7975 20.0965 22.2545 20.1358 21.708C20.1317 20.6327 20.3402 19.5676 20.7487 18.576C21.1052 17.6549 21.6696 16.8321 22.3963 16.1737C23.0493 15.5738 23.8892 15.2271 24.7685 15.1945H25.2228L24.1123 20.8241ZM57.7562 20.8241C57.6231 21.5791 57.3263 22.2945 56.8874 22.9182C56.7314 23.1692 56.5196 23.3793 56.2691 23.5315C56.0186 23.6838 55.7364 23.774 55.4453 23.7948C55.2119 23.8036 54.9796 23.7584 54.766 23.6624C54.5524 23.5665 54.3631 23.4224 54.2123 23.241C53.8896 22.8011 53.73 22.2595 53.7616 21.7116C53.7576 20.6364 53.966 19.5713 54.3745 18.5796C54.7343 17.6566 55.3038 16.8334 56.0365 16.1774C56.6898 15.578 57.5296 15.2314 58.4088 15.1982H58.863L57.7562 20.8241ZM109.772 18.4769C109.433 20.4133 109.051 21.7336 108.593 22.5111C108.099 23.3583 107.512 23.7911 106.87 23.7911C106.649 23.794 106.431 23.7424 106.234 23.6409C106.037 23.5394 105.867 23.3908 105.738 23.208C105.453 22.7622 105.315 22.2353 105.345 21.7043C105.341 20.6291 105.549 19.564 105.958 18.5723C106.316 17.6542 106.879 16.8332 107.602 16.1737C108.241 15.5755 109.067 15.2272 109.934 15.1909H110.382L109.772 18.4769Z" fill="url(#paint2_linear_1524_12204)"/>
<path d="M52.1087 37.0365V31.9456H53.8885C54.2431 31.9456 54.5356 32.0069 54.766 32.1296C54.9963 32.2505 55.1679 32.4138 55.2805 32.6193C55.3932 32.8231 55.4496 33.0493 55.4496 33.2979C55.4496 33.5166 55.4106 33.6973 55.3327 33.8398C55.2565 33.9823 55.1554 34.095 55.0295 34.1779C54.9052 34.2607 54.7701 34.322 54.6243 34.3618V34.4115C54.7801 34.4215 54.9367 34.4762 55.0941 34.5756C55.2515 34.675 55.3833 34.8175 55.4893 35.0031C55.5954 35.1888 55.6484 35.4158 55.6484 35.6843C55.6484 35.9395 55.5904 36.169 55.4744 36.3728C55.3584 36.5767 55.1753 36.7382 54.9251 36.8576C54.6748 36.9769 54.3492 37.0365 53.9482 37.0365H52.1087ZM52.7251 36.4897H53.9482C54.3509 36.4897 54.6367 36.4118 54.8058 36.256C54.9764 36.0986 55.0618 35.908 55.0618 35.6843C55.0618 35.5119 55.0179 35.3528 54.93 35.207C54.8422 35.0595 54.7171 34.9418 54.5547 34.854C54.3923 34.7645 54.2 34.7198 53.978 34.7198H52.7251V36.4897ZM52.7251 34.1828H53.8686C54.0542 34.1828 54.2216 34.1464 54.3707 34.0735C54.5215 34.0005 54.6409 33.8978 54.7287 33.7652C54.8182 33.6326 54.8629 33.4769 54.8629 33.2979C54.8629 33.0742 54.785 32.8844 54.6293 32.7286C54.4735 32.5712 54.2266 32.4925 53.8885 32.4925H52.7251V34.1828ZM58.2539 31.9456H58.9599L60.3718 34.322H60.4315L61.8434 31.9456H62.5494L60.7099 34.9385V37.0365H60.0934V34.9385L58.2539 31.9456ZM69.2064 37.0365V36.5891L71.9507 32.4925H69.1766V31.9456H72.6865V32.3931L69.9422 36.4897H72.7163V37.0365H69.2064ZM75.7804 37.0365V31.9456H78.8529V32.4925H76.3969V34.2127H78.6938V34.7595H76.3969V36.4897H78.8926V37.0365H75.7804ZM81.994 31.9456H82.7298L84.4599 36.1715H84.5196L86.2497 31.9456H86.9855V37.0365H86.4088V33.1686H86.3591L84.7682 37.0365H84.2113L82.6204 33.1686H82.5707V37.0365H81.994V31.9456ZM93.5925 31.9456H94.2089V35.3164C94.2089 35.6644 94.1269 35.9751 93.9628 36.2485C93.8004 36.5203 93.5709 36.7349 93.2743 36.8924C92.9776 37.0481 92.6296 37.126 92.2302 37.126C91.8309 37.126 91.4829 37.0481 91.1862 36.8924C90.8896 36.7349 90.6592 36.5203 90.4952 36.2485C90.3328 35.9751 90.2516 35.6644 90.2516 35.3164V31.9456H90.868V35.2666C90.868 35.5152 90.9227 35.7365 91.0321 35.9304C91.1415 36.1226 91.2972 36.2742 91.4994 36.3853C91.7033 36.4946 91.9469 36.5493 92.2302 36.5493C92.5136 36.5493 92.7572 36.4946 92.9611 36.3853C93.1649 36.2742 93.3207 36.1226 93.4284 35.9304C93.5378 35.7365 93.5925 35.5152 93.5925 35.2666V31.9456ZM97.47 37.0365V31.9456H99.1902C99.5879 31.9456 99.9144 32.0136 100.17 32.1495C100.425 32.2837 100.614 32.4685 100.736 32.7038C100.859 32.9391 100.92 33.2067 100.92 33.5067C100.92 33.8067 100.859 34.0726 100.736 34.3046C100.614 34.5366 100.426 34.7189 100.172 34.8515C99.9185 34.9824 99.5946 35.0479 99.2001 35.0479H97.8081V34.4911H99.1803C99.452 34.4911 99.6708 34.4513 99.8365 34.3718C100.004 34.2922 100.125 34.1795 100.199 34.0337C100.276 33.8862 100.314 33.7105 100.314 33.5067C100.314 33.3029 100.276 33.1247 100.199 32.9723C100.123 32.8198 100.001 32.7021 99.834 32.6193C99.6666 32.5348 99.4454 32.4925 99.1703 32.4925H98.0865V37.0365H97.47ZM99.8663 34.7496L101.119 37.0365H100.403L99.1703 34.7496H99.8663ZM104.594 31.9456V37.0365H103.978V31.9456H104.594ZM108.069 37.0365H107.423L109.292 31.9456H109.928L111.798 37.0365H111.151L109.63 32.751H109.59L108.069 37.0365ZM108.308 35.0479H110.913V35.5948H108.308V35.0479Z" fill="#424242"/>
<defs>
<linearGradient id="paint0_linear_1524_12204" x1="17.594" y1="21.4899" x2="-2.60615" y2="19.0217" gradientUnits="userSpaceOnUse">
<stop stop-color="#6E3DFF"/>
<stop offset="1" stop-color="#7E43F9"/>
</linearGradient>
<linearGradient id="paint1_linear_1524_12204" x1="114.149" y1="21.5917" x2="29.6772" y2="-27.291" gradientUnits="userSpaceOnUse">
<stop stop-color="#6E3DFF"/>
<stop offset="1" stop-color="#7E43F9"/>
</linearGradient>
<linearGradient id="paint2_linear_1524_12204" x1="114.149" y1="21.5917" x2="29.6772" y2="-27.291" gradientUnits="userSpaceOnUse">
<stop stop-color="#6E3DFF"/>
<stop offset="1" stop-color="#7E43F9"/>
</linearGradient>
</defs>
</svg>
