<?xml version="1.0" encoding="UTF-8"?>
<svg id="Layer_2" data-name="Layer 2" xmlns="http://www.w3.org/2000/svg" version="1.1" viewBox="0 0 393.7 336.4">
  <defs>
    <style>
      .cls-1 {
        fill: #eacca7;
        stroke-width: 0px;
      }
    </style>
  </defs>
  <g id="Layer_1-2" data-name="Layer 1-2">
    <path class="cls-1" d="M289.7,312.3c-9.6,4.7-19.9,8.8-30.7,12.3-15.1,4.9-31.3,9.6-47.9,11.1-15.2,1.3-31.8.8-49.3-1.6-11.8-1.7-22-6.6-31.8-11.4-4.8-2.4-9.3-4.6-13.8-6.3-14.9-5.6-28-12.6-40.1-21.2-13.9-10-24.6-19.7-33.5-30.7-1.2-1.4-2.3-2.8-3.5-4.2-8.3-10-16.9-20.4-22.7-33.4-5.3-11.7-11.7-27.3-14.5-44-2.2-13.4-2.4-28.6-.7-46.4l.4-3.9c1.3-13,2.7-27.8,8-41.9,4.6-12.1,12.7-21.1,19.8-29,2.5-2.7,4.8-5.3,6.9-7.9,8.1-10.1,18.2-22.7,31.8-31.7,12.7-8.3,26.5-14.6,41.1-18.6C124.1-.6,138.9-.3,154,.4c16.9.8,30.9,3.5,43.9,8.4,16.3,6.2,33.3,13.7,47,27.3,12.5,12.3,22,27.9,30.5,42.9,8.9,15.8,15.4,32.9,18.7,49.5,4.5,22.4,3.8,40.9-2.1,56.5-5.9,15.6-18.5,30-34.6,39.3-10.8,6.2-23.1,8.8-35.1,11.4-3.1.7-6.1,1.3-9.2,2-13.3,3.1-28.8,6.5-44.3,6.6-15.9.1-32.3-2.7-46.2-8-17-6.5-27.4-20.9-35.2-34.3-8.7-14.8-13.9-28.7-15.9-42.6v-.8c-2.3-15.2-4.8-32.3.9-47.3,7.6-20,29.9-29.4,50.9-35.8,18.2-5.6,40.8-12.7,59.5-5.6,14.6,5.5,25.9,17,31.8,32.4,5.5,14.3,5.7,30.6.3,44.7-9.5,25.2-36.4,36.8-62.4,27-8-3-12-11.9-9-19.9,3-8,11.9-12,19.9-9,9.9,3.7,19.2,0,22.6-9,2.7-7.1,2.6-15.4-.2-22.7-2.7-7.1-7.7-12.3-13.9-14.6-8.7-3.3-27.1,2.4-39.4,6.2-6.9,2.2-27.9,8.6-31.1,17.2-2.9,7.5-1.1,20,.7,32v.8c1.5,9.8,5.4,20,12.1,31.3,7.2,12.3,13.1,18.6,19.4,21,10.4,3.9,22.9,6.1,35.1,6,12.3,0,25.8-3.1,37.5-5.8,3.3-.8,6.6-1.5,9.9-2.2,10-2.1,19.4-4.1,26-7.9,9.8-5.7,17.8-14.5,21.2-23.5,3.7-9.8,3.9-23.1.7-39.5-2.7-13.4-8-27.3-15.3-40.3-7.4-13-15.5-26.4-25.3-36.1-10.1-10-24-15.7-36.2-20.3-10-3.8-20.6-5.8-34.4-6.4-13-.6-24.6-.9-35.1,2-11.5,3.1-22.4,8.1-32.3,14.6-8.8,5.8-15.8,14.1-24.6,25.1-2.6,3.2-5.4,6.3-8,9.3-5.9,6.5-11.4,12.6-13.9,19.3-3.9,10.3-5.1,22.4-6.2,34l-.4,4c-1.5,15.1-1.4,27.6.4,38.3,2.2,13.1,7.4,25.7,12.2,36.3,4.2,9.2,11.1,17.6,18.4,26.4,1.2,1.5,2.4,2.9,3.6,4.4,7.2,8.8,16,16.8,27.6,25.2,10,7.2,20.5,12.7,33,17.4,5.9,2.2,11.3,4.9,16.5,7.4,7.9,3.9,15.5,7.6,22.4,8.5,15,2.1,29.6,2.6,42.3,1.4,13.6-1.2,27.8-5.4,41.2-9.7,14.1-4.5,27-10.3,38.5-17.1,11.6-6.9,22.2-17,32.4-26.7,6.7-6.4,12-14.8,17.6-23.8,2.1-3.4,4.2-6.7,6.4-10.1,9.3-14,15.1-24.9,19.4-36.3,3-8,11.9-12,19.9-9,8,3,12,11.9,9,19.9-6.5,17.3-15.5,31.8-22.5,42.4-2,3.1-4,6.2-5.9,9.3-6.4,10.3-13,20.8-22.5,29.9-11,10.4-23.4,22.2-38,30.9-4.5,2.7-9.2,5.2-14.1,7.6h0Z"/>
  </g>
</svg>